<svg width="118" height="18" viewBox="0 0 118 18" fill="none" xmlns="http://www.w3.org/2000/svg">
<g clip-path="url(#clip0_2101_2)">
<path fill-rule="evenodd" clip-rule="evenodd" d="M100.803 1.37143C102.461 2.54629 103.719 4.29258 103.719 6.62858C103.719 10.0526 101.728 12.9371 98.9625 14.8914C96.188 16.8526 92.4702 18.0114 88.5287 18.0114H88.5022C87.6064 18.0118 86.7225 17.7988 85.9195 17.389C85.1164 16.9792 84.4157 16.3837 83.872 15.6488C83.3282 14.9139 82.9561 14.0595 82.7844 13.1519C82.6128 12.2443 82.6463 11.308 82.8823 10.416C81.8548 10.798 80.8768 11.3093 79.9705 11.9383C77.7917 13.4766 76.6602 15.424 76.6602 17.3714C76.6602 18.2606 77.092 19.0629 78.1349 19.8034C79.211 20.5646 80.8009 21.1406 82.6786 21.4537C84.5386 21.7623 86.5602 21.7966 88.4092 21.5611C90.2825 21.3257 91.8502 20.8366 92.8776 20.1989C93.255 19.9702 93.7046 19.9046 94.1286 20.0162C94.5526 20.1278 94.9169 20.4077 95.1421 20.795C95.3673 21.1823 95.4354 21.6457 95.3314 22.0845C95.2275 22.5233 94.96 22.902 94.587 23.1383C93.0149 24.1143 90.9401 24.6971 88.8122 24.9669C86.5961 25.2395 84.3541 25.1964 82.1494 24.8389C79.9971 24.48 77.878 23.7806 76.255 22.6286C74.5942 21.4537 73.3387 19.7051 73.3387 17.3714C73.3387 13.9474 75.3294 11.0629 78.095 9.10858C80.8562 7.15658 84.5519 6.00001 88.4712 5.98858H88.5597C89.4526 5.99743 90.3315 6.2181 91.1286 6.63352C91.9256 7.04893 92.6194 7.64798 93.1564 8.38435C93.6934 9.12072 94.0592 9.97469 94.2255 10.8803C94.3918 11.7858 94.3541 12.7187 94.1154 13.6069C95.2225 13.1954 96.2256 12.672 97.087 12.0617C99.2658 10.5234 100.397 8.57601 100.397 6.62858C100.397 5.73943 99.9655 4.93715 98.9226 4.19658C97.8487 3.43543 96.2566 2.85943 94.3789 2.54629C92.4824 2.24077 90.5543 2.20462 88.6483 2.43886C86.7772 2.67429 85.2073 3.16343 84.1799 3.80115C83.8025 4.02981 83.3529 4.09546 82.9289 3.98383C82.5048 3.87221 82.1406 3.59233 81.9154 3.20504C81.6902 2.81774 81.6221 2.35434 81.7261 1.91554C81.83 1.47675 82.0975 1.09804 82.4705 0.861721C84.0426 -0.114279 86.1174 -0.697137 88.2475 -0.966851C90.4629 -1.23927 92.7041 -1.1962 94.9081 -0.838851C97.0626 -0.479994 99.1795 0.219434 100.803 1.37143ZM88.4845 9.41715H88.5088C89.1714 9.42048 89.8056 9.69493 90.2724 10.1803C90.7392 10.6657 91.0004 11.3223 90.9988 12.0063C90.9972 12.6902 90.7328 13.3455 90.2638 13.8286C89.7947 14.3116 89.1592 14.5828 88.4966 14.5828C87.8341 14.5828 87.1986 14.3116 86.7295 13.8286C86.2604 13.3455 85.9961 12.6902 85.9945 12.0063C85.9929 11.3223 86.2541 10.6657 86.7209 10.1803C87.1877 9.69493 87.8219 9.42048 88.4845 9.41715Z" fill="#757FE3"/>
<path d="M35.3571 15H38.3571C39.2571 15 39.8571 14.4 39.8571 13.5V9C39.8571 7.65 38.8071 6.45 37.6071 6.15C34.9071 5.4 30.8571 4.5 30.8571 4.5C30.8571 4.5 28.9071 2.4 27.5571 1.05C26.8071 0.45 25.9071 0 24.8571 0H14.3571C13.4571 0 12.7071 0.6 12.2571 1.35L10.1571 5.7C9.95843 6.27934 9.85706 6.88756 9.85706 7.5V13.5C9.85706 14.4 10.4571 15 11.3571 15H14.3571" fill="#757FE3"/>
<path d="M17.3571 17.9999C19.0139 17.9999 20.3571 16.6568 20.3571 14.9999C20.3571 13.3431 19.0139 11.9999 17.3571 11.9999C15.7002 11.9999 14.3571 13.3431 14.3571 14.9999C14.3571 16.6568 15.7002 17.9999 17.3571 17.9999Z" fill="#575757"/>
<path d="M32.3571 17.9999C34.0139 17.9999 35.3571 16.6568 35.3571 14.9999C35.3571 13.3431 34.0139 11.9999 32.3571 11.9999C30.7002 11.9999 29.3571 13.3431 29.3571 14.9999C29.3571 16.6568 30.7002 17.9999 32.3571 17.9999Z" fill="#575757"/>
<line x1="5.57141" y1="3.78571" x2="14.1428" y2="3.78571" stroke="#7079CC"/>
<line x1="1.28564" y1="8.07147" x2="11.9999" y2="8.07147" stroke="#7079CC"/>
<line x1="-3" y1="12.3572" x2="7.71429" y2="12.3572" stroke="#7079CC"/>
<path d="M25.5484 2.14282C25.7934 2.14282 26.0298 2.2327 26.2128 2.39541L27.5358 3.57139L28.8073 4.70162C29.0208 4.89139 29.1429 5.16339 29.1429 5.44903V6.42854H22.7144V2.14282H25.5484Z" fill="white" stroke="black" stroke-width="0.01"/>
<path d="M41.455 8.45C41.455 7.55733 41.6543 6.76 42.053 6.058C42.4603 5.34733 43.0107 4.797 43.704 4.407C44.406 4.00833 45.1903 3.809 46.057 3.809C47.071 3.809 47.9593 4.069 48.722 4.589C49.4847 5.109 50.0177 5.82833 50.321 6.747H48.228C48.02 6.31367 47.7253 5.98867 47.344 5.772C46.9713 5.55533 46.538 5.447 46.044 5.447C45.5153 5.447 45.043 5.57267 44.627 5.824C44.2197 6.06667 43.899 6.41333 43.665 6.864C43.4397 7.31467 43.327 7.84333 43.327 8.45C43.327 9.048 43.4397 9.57667 43.665 10.036C43.899 10.4867 44.2197 10.8377 44.627 11.089C45.043 11.3317 45.5153 11.453 46.044 11.453C46.538 11.453 46.9713 11.3447 47.344 11.128C47.7253 10.9027 48.02 10.5733 48.228 10.14H50.321C50.0177 11.0673 49.4847 11.791 48.722 12.311C47.968 12.8223 47.0797 13.078 46.057 13.078C45.1903 13.078 44.406 12.883 43.704 12.493C43.0107 12.0943 42.4603 11.544 42.053 10.842C41.6543 10.14 41.455 9.34267 41.455 8.45ZM51.4075 9.373C51.4075 8.645 51.5505 7.99933 51.8365 7.436C52.1312 6.87267 52.5255 6.43933 53.0195 6.136C53.5222 5.83267 54.0812 5.681 54.6965 5.681C55.2338 5.681 55.7018 5.78933 56.1005 6.006C56.5078 6.22267 56.8328 6.49567 57.0755 6.825V5.798H58.9085V13H57.0755V11.947C56.8415 12.285 56.5165 12.5667 56.1005 12.792C55.6932 13.0087 55.2208 13.117 54.6835 13.117C54.0768 13.117 53.5222 12.961 53.0195 12.649C52.5255 12.337 52.1312 11.8993 51.8365 11.336C51.5505 10.764 51.4075 10.1097 51.4075 9.373ZM57.0755 9.399C57.0755 8.957 56.9888 8.58 56.8155 8.268C56.6422 7.94733 56.4082 7.70467 56.1135 7.54C55.8188 7.36667 55.5025 7.28 55.1645 7.28C54.8265 7.28 54.5145 7.36233 54.2285 7.527C53.9425 7.69167 53.7085 7.93433 53.5265 8.255C53.3532 8.567 53.2665 8.93967 53.2665 9.373C53.2665 9.80633 53.3532 10.1877 53.5265 10.517C53.7085 10.8377 53.9425 11.0847 54.2285 11.258C54.5232 11.4313 54.8352 11.518 55.1645 11.518C55.5025 11.518 55.8188 11.4357 56.1135 11.271C56.4082 11.0977 56.6422 10.855 56.8155 10.543C56.9888 10.2223 57.0755 9.841 57.0755 9.399ZM62.5061 6.916C62.7401 6.53467 63.0434 6.23567 63.4161 6.019C63.7974 5.80233 64.2307 5.694 64.7161 5.694V7.605H64.2351C63.6631 7.605 63.2297 7.73933 62.9351 8.008C62.6491 8.27667 62.5061 8.74467 62.5061 9.412V13H60.6861V5.798H62.5061V6.916ZM75.3576 6.656C75.1496 6.27467 74.8636 5.98433 74.4996 5.785C74.1356 5.58567 73.7109 5.486 73.2256 5.486C72.6882 5.486 72.2116 5.60733 71.7956 5.85C71.3796 6.09267 71.0546 6.43933 70.8206 6.89C70.5866 7.34067 70.4696 7.86067 70.4696 8.45C70.4696 9.05667 70.5866 9.58533 70.8206 10.036C71.0632 10.4867 71.3969 10.8333 71.8216 11.076C72.2462 11.3187 72.7402 11.44 73.3036 11.44C73.9969 11.44 74.5646 11.258 75.0066 10.894C75.4486 10.5213 75.7389 10.0057 75.8776 9.347H72.7576V7.956H77.6716V9.542C77.5502 10.1747 77.2902 10.7597 76.8916 11.297C76.4929 11.8343 75.9772 12.2677 75.3446 12.597C74.7206 12.9177 74.0186 13.078 73.2386 13.078C72.3632 13.078 71.5702 12.883 70.8596 12.493C70.1576 12.0943 69.6029 11.544 69.1956 10.842C68.7969 10.14 68.5976 9.34267 68.5976 8.45C68.5976 7.55733 68.7969 6.76 69.1956 6.058C69.6029 5.34733 70.1576 4.797 70.8596 4.407C71.5702 4.00833 72.3589 3.809 73.2256 3.809C74.2482 3.809 75.1366 4.06033 75.8906 4.563C76.6446 5.057 77.1646 5.75467 77.4506 6.656H75.3576ZM78.5501 9.373C78.5501 8.645 78.6931 7.99933 78.9791 7.436C79.2738 6.87267 79.6681 6.43933 80.1621 6.136C80.6648 5.83267 81.2238 5.681 81.8391 5.681C82.3764 5.681 82.8444 5.78933 83.2431 6.006C83.6504 6.22267 83.9754 6.49567 84.2181 6.825V5.798H86.0511V13H84.2181V11.947C83.9841 12.285 83.6591 12.5667 83.2431 12.792C82.8358 13.0087 82.3634 13.117 81.8261 13.117C81.2194 13.117 80.6648 12.961 80.1621 12.649C79.6681 12.337 79.2738 11.8993 78.9791 11.336C78.6931 10.764 78.5501 10.1097 78.5501 9.373ZM84.2181 9.399C84.2181 8.957 84.1314 8.58 83.9581 8.268C83.7848 7.94733 83.5508 7.70467 83.2561 7.54C82.9614 7.36667 82.6451 7.28 82.3071 7.28C81.9691 7.28 81.6571 7.36233 81.3711 7.527C81.0851 7.69167 80.8511 7.93433 80.6691 8.255C80.4958 8.567 80.4091 8.93967 80.4091 9.373C80.4091 9.80633 80.4958 10.1877 80.6691 10.517C80.8511 10.8377 81.0851 11.0847 81.3711 11.258C81.6658 11.4313 81.9778 11.518 82.3071 11.518C82.6451 11.518 82.9614 11.4357 83.2561 11.271C83.5508 11.0977 83.7848 10.855 83.9581 10.543C84.1314 10.2223 84.2181 9.841 84.2181 9.399ZM89.6486 3.38V13H87.8286V3.38H89.6486ZM90.9788 9.373C90.9788 8.645 91.1218 7.99933 91.4078 7.436C91.7025 6.87267 92.0968 6.43933 92.5908 6.136C93.0935 5.83267 93.6525 5.681 94.2678 5.681C94.8051 5.681 95.2731 5.78933 95.6718 6.006C96.0791 6.22267 96.4041 6.49567 96.6468 6.825V5.798H98.4798V13H96.6468V11.947C96.4128 12.285 96.0878 12.5667 95.6718 12.792C95.2645 13.0087 94.7921 13.117 94.2548 13.117C93.6481 13.117 93.0935 12.961 92.5908 12.649C92.0968 12.337 91.7025 11.8993 91.4078 11.336C91.1218 10.764 90.9788 10.1097 90.9788 9.373ZM96.6468 9.399C96.6468 8.957 96.5601 8.58 96.3868 8.268C96.2135 7.94733 95.9795 7.70467 95.6848 7.54C95.3901 7.36667 95.0738 7.28 94.7358 7.28C94.3978 7.28 94.0858 7.36233 93.7998 7.527C93.5138 7.69167 93.2798 7.93433 93.0978 8.255C92.9245 8.567 92.8378 8.93967 92.8378 9.373C92.8378 9.80633 92.9245 10.1877 93.0978 10.517C93.2798 10.8377 93.5138 11.0847 93.7998 11.258C94.0945 11.4313 94.4065 11.518 94.7358 11.518C95.0738 11.518 95.3901 11.4357 95.6848 11.271C95.9795 11.0977 96.2135 10.855 96.3868 10.543C96.5601 10.2223 96.6468 9.841 96.6468 9.399ZM104.235 13L102.753 10.764L101.44 13H99.4904L101.843 9.386L99.4644 5.798H101.518L102.987 8.021L104.313 5.798H106.263L103.897 9.386L106.289 13H104.235ZM114.168 5.798L109.709 16.406H107.772L109.332 12.818L106.446 5.798H108.487L110.346 10.829L112.231 5.798H114.168Z" fill="black"/>
</g>
<defs>
<clipPath id="clip0_2101_2">
<rect width="118" height="18" fill="white"/>
</clipPath>
</defs>
</svg>
